<svg width="3000" height="3000" viewBox="0 0 3000 3000" xmlns="http://www.w3.org/2000/svg" xmlns:xlink="http://www.w3.org/1999/xlink" id="Layer_1" overflow="hidden"><g><g><path d="M486.064 2516.34C258.18 2514.05 262.994 2511 262.186 2521.92 261.046 2537.14 289.842 2525.6 296.723 2550.19L296.76 2550.43C297.452 2572.29 295.736 2849.78 295.625 2867.03 295.385 2868.78 293.437 2879.43 281.844 2885.77 278.489 2887.6 276.799 2891.47 277.75 2895.18 278.692 2898.89 282.029 2901.47 285.85 2901.47L287.6 2901.47C322.728 2901.47 370.266 2902.5 397.215 2907.35 416.263 2910.79 434.895 2912.53 452.605 2912.53 452.614 2912.53 452.605 2912.53 452.614 2912.53 590.296 2912.53 662.877 2807.28 663.403 2703.33 663.854 2614.15 608.557 2517.59 486.064 2516.34ZM366.203 2548.14C608.917 2532.56 612.928 2716.07 576.392 2805.9 557.275 2852.9 490.288 2880.99 436.555 2880.99 403.32 2880.99 379.052 2870.48 368.122 2851.38L366.203 2548.14Z" fill="#585A60"/><path d="M808.232 2711.21C808.232 2842.16 915.406 2910.67 1021.26 2910.67 1123.92 2910.67 1233.02 2837.46 1233.02 2701.8 1233.02 2443.35 808.232 2436.75 808.232 2711.21ZM884.299 2710.39C884.299 2614.38 911.959 2537.14 1008.86 2537.14 1084.87 2537.14 1154.1 2615.29 1154.1 2701.28 1155.73 2778.57 1138.57 2872.47 1047.56 2881.24 953.396 2881.1 898.468 2823.51 884.327 2710.55L884.299 2710.39Z" fill="#585A60"/><path d="M1692.94 2511.24C1684.56 2513.91 1674.38 2515.71 1667.65 2515.71 1660.7 2515.71 1410.21 2515.35 1395.16 2515.33 1384.78 2509.88 1368.63 2503.27 1366.12 2514.69L1355.74 2561.93C1354.87 2565.87 1356.93 2569.86 1360.65 2571.43 1364.35 2573 1368.66 2571.7 1370.89 2568.33 1375.4 2561.5 1382.2 2556.32 1391.65 2552.53 1415.89 2551.56 1480.98 2551.45 1495.29 2551.43L1493.8 2869.39C1493.78 2869.86 1493.14 2880.86 1482.89 2887.1 1475.69 2891.49 1478.81 2902.62 1487.23 2902.62 1487.3 2902.62 1576.41 2902.22 1576.46 2902.22 1585.25 2902.17 1588.03 2890.25 1580.15 2886.35 1572.83 2882.73 1568.96 2877.26 1568.33 2870.16 1567.98 2855.37 1565.78 2603.37 1565.32 2551.5L1656.53 2553.67C1657.35 2553.71 1676.59 2554.8 1683.41 2573.97 1684.76 2577.76 1688.61 2580.04 1692.56 2579.44 1701.36 2578.09 1699.73 2571.79 1700.93 2532.33 1702.83 2528.03 1704.39 2522.05 1703.74 2517.92 1702.94 2512.85 1697.83 2509.71 1692.94 2511.24Z" fill="#585A60"/><path d="M2201.53 2784.86C2179.1 2784.5 2132.33 2784.47 2122.4 2784.46 2122.07 2783.67 2010.29 2507.2 2010.29 2507.2 2007.27 2500.03 1997.54 2500.67 1994.85 2507.3L1848.75 2866.59C1848.7 2866.73 1842.2 2879.71 1826.37 2887.28 1818.36 2891.13 1821.14 2903.19 1829.97 2903.21 1830.42 2903.21 1896.21 2903.3 1896.21 2903.3 1905.62 2903.3 1907.77 2890.13 1898.97 2887.04 1894.34 2884.71 1892.2 2881.44 1893.52 2876.41 1898.21 2860.29 1910.71 2825.3 1913.74 2816.88L2059.51 2817.25 2088.15 2885.15C2088.28 2885.44 2088.58 2886.7 2087.63 2888.11 2082.75 2893.43 2086.48 2902.04 2093.68 2902.13 2094.28 2902.15 2176.83 2903.31 2176.83 2903.31 2181.75 2903.31 2185.3 2899.4 2185.3 2894.94 2185.3 2891.27 2182.93 2888.14 2179.64 2887.02 2168.69 2881.74 2164.08 2876.72 2135.93 2816.99 2160.81 2817.53 2165.49 2806.31 2202.48 2801.52 2206.84 2800.96 2210.01 2797.14 2209.76 2792.76 2209.51 2788.38 2205.92 2784.93 2201.53 2784.86ZM1988.72 2621.33 2047.42 2783.94 1925.1 2785.36 1988.72 2621.33Z" fill="#585A60"/><path d="M2721.84 2815.23C2713.8 2832.83 2703.88 2850.11 2679.05 2851.11 2666.12 2851.61 2597.26 2854.34 2553.99 2854.02 2813.4 2656.18 2744.32 2507.21 2589.77 2507.21 2555.89 2507.21 2521.83 2515.38 2496.34 2529.6 2493.89 2530.99 2492.28 2533.5 2492.08 2536.3 2491.43 2545.27 2493.16 2563.37 2497.22 2590.11 2497.79 2593.89 2500.86 2596.81 2504.68 2597.18 2508.46 2597.52 2512.07 2595.27 2513.37 2591.68 2528.27 2550.11 2558.24 2535.3 2581.31 2535.3 2614.31 2535.3 2648.82 2563.63 2650.91 2617.76 2655.56 2738.24 2508.78 2851.96 2475.87 2883.28 2470.3 2888.08 2465.92 2893.16 2470.55 2898.99 2470.55 2909.5 2483.85 2910.85 2486.81 2902.27 2515.05 2902.1 2668.3 2901.21 2696.66 2901.53 2717.22 2903.02 2727.39 2891.06 2727.85 2877.7L2737.71 2820.12C2739.35 2810.5 2725.89 2806.39 2721.84 2815.23Z" fill="#585A60"/></g><path d="M2590.78 594.578C2582.2 188.165 2581.66 276.015 2590.03 149.35 2590.53 141.841 2584.86 135.351 2577.34 134.835 1972.19 93.444 1949.24 88.672 1902.35 88.672 1076.79 88.603 1510.21 75.116 408.253 140.119 400.767 140.567 395.044 146.964 395.437 154.445 466.454 1517 463.86 1294.73 427.583 2202.83 427.324 2209.37 431.719 2215.14 438.078 2216.64 520.551 2236.15 505.933 2228.47 698.317 2228.6 698.63 2228.7 1058.85 2189.37 1059.18 2189.33 1060.88 2189.62 1557.31 2271.09 1559.03 2271.09 1559.41 2271.09 1559.78 2271.07 1560.17 2271.03 2141.96 2222.28 1975.2 2234.06 2350.54 2213.26L2570.94 2257.85C2579.51 2259.56 2587.38 2252.94 2587.28 2244.31 2582.51 1800.6 2590.78 594.578 2590.78 594.578ZM1696.14 562.228C1697.78 561.827 1700.13 561.259 1703.05 560.484L1859.93 525.13C1940.28 504.993 1952.14 500.092 2020.92 467.761L2020.92 467.761C2052.67 478.779 2139.71 526.945 2161.79 554.6 2176.36 572.905 2175.4 576.975 2170.83 596.586 2169.94 600.348 2168.93 604.681 2167.87 609.795 2167.8 610.132 2167.74 610.474 2167.69 610.819L2133.19 880.763C2099.06 882.024 2096.21 879.411 2086.77 870.716 2082.88 867.12 2078.02 862.648 2069.47 856.92 2017.57 822.078 1847.69 696.388 1794.06 653.128L1688.62 568.407 1689.47 567.586C1690.6 566.446 1691.62 564.919 1692.3 563.455 1692.83 563.045 1694.91 562.533 1696.14 562.228ZM1940.6 1921.41C1937.52 1918.33 622.399 524.137 621.434 522.212L736.334 434.072 2341.93 1497.23C2328.66 1535.25 2323.37 1578.88 2315.39 1615.12 2287.18 1743.1 2250.91 1799.08 2194.17 1920.68 2112.99 1923.9 1946.2 1923.28 1940.6 1921.41ZM744.268 1544.21C759.051 1508.69 779.372 1451.54 796.458 1422.58 880.439 1475.06 1208.5 1804.69 1237.03 1849.19 1221.23 1855.06 1153.35 1865.15 1040.58 1910.2 969.12 1938.69 901.652 1965.74 836.478 1943.62 829.979 1941.43 812.654 1926.73 786.959 1904.55 740.034 1864.04 697.545 1834.87 672.834 1820.28 630.692 1795.4 637.26 1800.65 744.268 1544.21Z" fill="#EA473B"/><g><path d="M563.248 1547.11C552.951 1016.01 564.447 1305.31 503.423 134.507L408.254 140.119C400.768 140.567 395.045 146.963 395.437 154.445L446.11 1126.6C456.176 1645.89 458.923 1418.32 427.584 2202.83 427.325 2209.37 431.72 2215.14 438.079 2216.64 484.616 2227.66 503.964 2230.12 536.71 2230.12 535.676 2226.62 534.549 2265.34 563.248 1547.11Z" fill="#D82B27"/><path d="M1305.34 1879.2C1305.34 1879.2 1360.99 1860.04 1315.24 1809.83 1128.51 1601.56 1014.76 1526.11 906.637 1407.49 861.448 1358.58 796.458 1422.57 796.458 1422.57 1219.02 1798.19 1134.36 1743.81 1208.85 1815.73 1218.74 1825.27 1226.54 1832.82 1237.03 1849.18 1235.08 1849.91 1226.45 1852.08 1214.49 1855.11 1038.69 1899.46 1012.31 1929.58 933.808 1946.4 1007.07 2006.13 1136.25 1933.26 1228.34 1901.54 1250.38 1893.98 1279.55 1885.93 1305.34 1879.2L1305.34 1879.2Z" fill="#D82B27"/><path d="M2421.87 1386.65C2421.86 1386.64 886.869 407.737 886.869 407.737 835.439 374.945 779.981 390.725 736.329 434.072L2341.93 1497.23C2328.67 1535.25 2323.37 1578.88 2315.39 1615.12 2287.18 1743.1 2250.91 1799.08 2194.19 1920.68 2194.19 1920.68 2339.59 1948.62 2383.93 1850.22 2487.95 1628.82 2463.94 1587.07 2488.72 1517.16 2485.79 1477.74 2491.27 1430.91 2421.87 1386.65Z" fill="#D82B27"/><path d="M2167.87 609.794C2167.8 610.131 2167.74 610.473 2167.69 610.818L2133.19 880.762C2133.19 880.762 2269.68 965.063 2286.83 826.457 2286.83 826.411 2286.85 826.365 2286.85 826.323L2315.09 598.12C2315.14 597.774 2315.19 597.419 2315.26 597.068 2316.34 591.843 2317.38 587.413 2318.28 583.572 2322.97 563.528 2323.95 559.365 2309.03 540.649 2293.37 521.011 2223.15 469.162 2170.83 435.544 2121.46 402.438 2062.82 442.25 2062.82 442.25 2048.17 453.465 2035.09 463.264 2020.92 467.764 2056.78 487.158 2147.65 536.879 2161.79 554.602 2176.36 572.907 2175.4 576.978 2170.83 596.588 2169.93 600.356 2168.93 604.68 2167.87 609.794Z" fill="#D82B27"/></g></g></svg>